<svg width="20" height="20" viewBox="0 0 20 20" fill="none" xmlns="http://www.w3.org/2000/svg">
<path d="M1.6665 10C1.6665 6.8575 1.6665 5.28583 2.64317 4.31C3.619 3.33333 5.19067 3.33333 8.33317 3.33333H11.6665C14.809 3.33333 16.3807 3.33333 17.3565 4.31C18.3332 5.28583 18.3332 6.8575 18.3332 10C18.3332 13.1425 18.3332 14.7142 17.3565 15.69C16.3807 16.6667 14.809 16.6667 11.6665 16.6667H8.33317C5.19067 16.6667 3.619 16.6667 2.64317 15.69C1.6665 14.7142 1.6665 13.1425 1.6665 10Z" stroke="#999999" stroke-width="1.5"/>
<path d="M8.33317 13.3333H4.99984M11.6665 13.3333H10.4165M1.6665 8.33333H18.3332" stroke="#999999" stroke-width="1.5" stroke-linecap="round"/>
</svg>
