<svg width="45" height="60" viewBox="0 0 45 60" fill="none" xmlns="http://www.w3.org/2000/svg">
<g clip-path="url(#clip0_5_303137)">
<path d="M0 21.4452C0 9.60136 9.60136 0 21.4452 0H23.2516C35.2629 0 45 9.73709 45 21.7484C45 27.0646 43.0198 32.1694 39.7296 36.3451C37.3673 39.343 34.7297 42.9291 33 46C30.8144 49.8804 27.9277 55.3542 26.4543 58.1696C25.8657 59.2944 24.703 60 23.4335 60C22.2347 60 21.1267 59.372 20.5116 58.343C18.8594 55.5792 15.4742 49.943 13 46C11.0739 42.9305 8.23111 39.3649 5.69469 36.3797C2.13813 32.1939 0 26.938 0 21.4452Z" fill="#0E0E0E"/>
<path d="M29.2892 27.3803L29.2879 25.4734C29.4038 25.3992 29.54 25.3709 29.6943 25.3709C29.9309 25.3709 30.1203 25.4565 30.2626 25.6284C30.4061 25.801 30.4783 26.0619 30.4783 26.413C30.4783 26.7669 30.4048 27.0332 30.2585 27.2098C30.1116 27.3871 29.9235 27.4754 29.6943 27.4754C29.542 27.4754 29.4072 27.4579 29.2892 27.3803ZM31.0101 26.9651V27.9472H30.1237C30.3468 27.8825 30.5383 27.7619 30.6947 27.5866C30.845 27.4174 30.9495 27.2111 31.0101 26.9651ZM29.2872 20.5223L26.0112 24.5782L22.7325 20.5385L22.7372 27.9472H21.0163L21.0103 16.031H21.3223L26.0186 22.0565L30.6738 16.031H31.0041L31.0094 25.8846C30.9501 25.6365 30.8443 25.4289 30.6926 25.2611C30.4405 24.9806 30.1075 24.8404 29.6889 24.8404C29.5447 24.8404 29.4119 24.8566 29.2879 24.8876L29.2872 20.5223Z" fill="white"/>
<path d="M17.6074 24.1839L19.3236 24.1947H19.3256V24.196C19.298 24.3086 19.2663 24.4219 19.2306 24.5331C19.1975 24.6443 19.1591 24.7549 19.118 24.8627C19.0371 25.0771 18.942 25.2833 18.8335 25.4808C18.7297 25.6736 18.6118 25.8576 18.4803 26.0329C18.3549 26.2007 18.2221 26.3612 18.0806 26.5128C17.9384 26.6645 17.7874 26.8074 17.6283 26.9382C17.4847 27.0575 17.3317 27.1667 17.174 27.2638C17.0196 27.3588 16.8592 27.4424 16.6927 27.5138C16.5201 27.588 16.3428 27.6527 16.1635 27.7066C15.9835 27.7626 15.8002 27.8077 15.6148 27.8435C15.4227 27.8805 15.2299 27.9082 15.0358 27.9257C14.8363 27.9432 14.6341 27.95 14.4325 27.95C14.2593 27.9479 14.0874 27.9385 13.9162 27.921C13.745 27.9048 13.5751 27.8785 13.4052 27.8455C13.2374 27.8118 13.0709 27.7713 12.9057 27.7208C12.7386 27.6716 12.5754 27.6149 12.415 27.5489C12.2552 27.4842 12.0962 27.412 11.9418 27.3332C11.7874 27.2543 11.6378 27.1667 11.4909 27.0743C11.3453 26.9806 11.203 26.8809 11.0655 26.7744C10.9267 26.6665 10.7918 26.5519 10.6638 26.4313C10.537 26.3133 10.4198 26.1879 10.3079 26.0545C10.1953 25.919 10.0881 25.7754 9.98969 25.6264C9.88319 25.462 9.78545 25.2914 9.69647 25.1155C9.60682 24.9382 9.52526 24.7582 9.4538 24.5742C9.37561 24.378 9.31023 24.1778 9.25226 23.9756C9.19429 23.766 9.1471 23.555 9.1107 23.3427C9.07228 23.1189 9.04329 22.8931 9.02644 22.6666C9.00622 22.43 8.99881 22.1927 9.00015 21.9548C9.00218 21.7134 9.01229 21.4701 9.03521 21.2281C9.05678 20.9962 9.08711 20.7657 9.12823 20.5379C9.16935 20.3215 9.21855 20.1078 9.27922 19.8982C9.33921 19.6939 9.40797 19.4924 9.48886 19.2942C9.56368 19.1102 9.64659 18.9302 9.73692 18.7543C9.82859 18.579 9.92903 18.4085 10.0376 18.244C10.1387 18.0957 10.2452 17.9528 10.3618 17.8186C10.473 17.6865 10.5943 17.5625 10.7211 17.4466C10.8512 17.3286 10.9873 17.216 11.1262 17.1115C11.265 17.0071 11.4073 16.91 11.5542 16.8183C11.7012 16.728 11.8522 16.6444 12.0052 16.5689C12.1602 16.4927 12.3166 16.4233 12.4757 16.3647C12.6374 16.302 12.8012 16.2481 12.9664 16.2029C13.1315 16.1564 13.2994 16.118 13.4686 16.089C13.6398 16.058 13.8117 16.0357 13.9836 16.0209C14.1595 16.0061 14.3348 16 14.5107 16C14.7035 16.002 14.8976 16.0128 15.0897 16.0324C15.2778 16.0519 15.4672 16.0809 15.6533 16.1193C15.8366 16.1564 16.0186 16.2029 16.1979 16.2595C16.3752 16.3141 16.5491 16.3782 16.7217 16.4523C16.8868 16.5231 17.0466 16.606 17.2002 16.7004C17.358 16.7954 17.509 16.9033 17.6539 17.0205C17.8116 17.1479 17.9613 17.2882 18.1022 17.4344C18.243 17.5827 18.3758 17.7405 18.4992 17.9029C18.6293 18.0701 18.7452 18.2494 18.849 18.4341C18.9535 18.6208 19.0465 18.8156 19.1241 19.0185C19.1591 19.1088 19.1928 19.2005 19.2218 19.2928C19.2521 19.3879 19.2811 19.4829 19.306 19.5793L19.3081 19.5807H19.3047L17.5636 19.5679H17.5622C17.4429 19.3023 17.298 19.0576 17.1234 18.8385C16.9549 18.6275 16.7621 18.4388 16.541 18.2797C16.2383 18.0606 15.908 17.911 15.5643 17.816C15.2205 17.7196 14.8599 17.6771 14.4986 17.6757C14.2357 17.6724 13.9748 17.6953 13.718 17.7452C13.4767 17.793 13.238 17.8658 13.0102 17.9676C12.7797 18.0687 12.566 18.1961 12.3665 18.3458C12.1636 18.5001 11.9769 18.6774 11.8077 18.8776C11.4625 19.2848 11.2179 19.7438 11.0554 20.2332C10.8781 20.7745 10.7999 21.3542 10.7959 21.948C10.7925 22.5088 10.8707 23.0447 11.0345 23.5476C11.1949 24.0356 11.4363 24.494 11.7665 24.916C11.9317 25.1269 12.1164 25.3184 12.3186 25.4862C12.5127 25.6473 12.7258 25.7862 12.9543 25.8988C13.1841 26.0113 13.4207 26.0936 13.6641 26.1482C13.9195 26.2061 14.1804 26.2338 14.4446 26.2351C14.6388 26.2365 14.8329 26.2257 15.027 26.2001C15.209 26.1758 15.391 26.1387 15.5683 26.0855C15.7456 26.0322 15.9182 25.9648 16.0833 25.8826C16.2471 25.8017 16.4042 25.7066 16.5531 25.5974C16.7075 25.4849 16.8477 25.3575 16.9765 25.2179C17.1052 25.0777 17.2211 24.9234 17.325 24.7576C17.3802 24.6672 17.4301 24.5756 17.4766 24.4805C17.5251 24.3841 17.5676 24.2844 17.6081 24.1826H17.6074V24.1839Z" fill="white"/>
<path d="M34.4368 27.9486V24.9065H36.5777V25.4201H35.0233V26.0969H36.4692V26.6105H35.0233V27.4356H36.6343V27.9492H34.4368V27.9486ZM32.1066 26.1953H32.5393C32.8191 26.1953 32.993 26.1825 33.0638 26.1569C33.1339 26.1326 33.1891 26.0895 33.2269 26.0281C33.2673 25.9675 33.2869 25.8913 33.2869 25.7996C33.2869 25.6965 33.2613 25.6142 33.2087 25.5516C33.1568 25.4889 33.084 25.4484 32.9889 25.4322C32.9411 25.4242 32.7995 25.4208 32.5636 25.4208H32.1066V26.1953ZM31.5215 27.9486V24.9065H32.7517C33.0604 24.9065 33.2855 24.9341 33.4257 24.9887C33.5666 25.0433 33.6778 25.1404 33.7621 25.2806C33.8464 25.4208 33.8888 25.5799 33.8888 25.7585C33.8888 25.989 33.8248 26.1757 33.6974 26.3254C33.5707 26.4737 33.3813 26.5667 33.1271 26.6058C33.2525 26.6826 33.357 26.7683 33.4379 26.8613C33.5201 26.9529 33.63 27.1194 33.7688 27.3554L34.1221 27.9479H33.4237L33.0051 27.2846C32.8555 27.048 32.7523 26.8997 32.6964 26.8384C32.6411 26.777 32.5831 26.7339 32.5205 26.7116C32.4578 26.6894 32.3594 26.6779 32.2259 26.6779H32.1066V27.9486H31.5215Z" fill="white"/>
<path d="M26.6368 27.9487V25.4202H25.7794V24.9066H28.0739V25.4202H27.2226V27.9487H26.6368ZM29.2879 24.8877V25.4735C29.2111 25.5153 29.143 25.5672 29.081 25.64C28.934 25.8139 28.8592 26.0768 28.8592 26.4253C28.8592 26.7697 28.9361 27.0326 29.0871 27.2113C29.1484 27.282 29.2158 27.3387 29.2886 27.3804L29.2893 27.9635C29.0325 27.9056 28.8134 27.7802 28.6395 27.5901C28.3853 27.313 28.2586 26.9329 28.2586 26.4469C28.2586 26.1361 28.3031 25.8766 28.3901 25.6656C28.4561 25.5099 28.5458 25.371 28.6583 25.247C28.7736 25.1243 28.897 25.0327 29.0331 24.972C29.114 24.9376 29.1983 24.9073 29.2879 24.8877ZM23.1377 26.9632L23.708 26.9039C23.741 27.1048 23.8104 27.2517 23.9156 27.3447C24.0194 27.4398 24.1603 27.4863 24.3375 27.4863C24.5236 27.4863 24.6665 27.4445 24.7609 27.3609C24.8559 27.2773 24.9038 27.1789 24.9038 27.0684C24.9038 26.9956 24.8835 26.9342 24.8438 26.8837C24.804 26.8331 24.7339 26.79 24.6341 26.7529C24.5654 26.7273 24.4117 26.6835 24.1697 26.6194C23.8583 26.5379 23.6392 26.4374 23.5125 26.3181C23.3352 26.1489 23.2482 25.9447 23.2482 25.7034C23.2482 25.549 23.29 25.4027 23.3723 25.2666C23.4565 25.1317 23.5752 25.03 23.7329 24.9592C23.8886 24.8884 24.0787 24.8527 24.2998 24.8527C24.6624 24.8527 24.9341 24.9363 25.1168 25.1055C25.3001 25.2746 25.3965 25.5005 25.4053 25.7836L24.8202 25.8045C24.7939 25.6467 24.74 25.5342 24.6591 25.4668C24.5782 25.3973 24.4555 25.3623 24.2924 25.3623C24.1245 25.3623 23.9924 25.3993 23.898 25.4735C23.8374 25.52 23.805 25.5847 23.805 25.6636C23.805 25.7357 23.8347 25.7971 23.892 25.8483C23.9661 25.913 24.1441 25.9817 24.4272 26.0532C24.7117 26.1226 24.9206 26.1961 25.0554 26.2723C25.1916 26.3478 25.2981 26.4489 25.3749 26.581C25.4511 26.7118 25.4895 26.8729 25.4895 27.0657C25.4895 27.2396 25.4437 27.402 25.352 27.555C25.2597 27.7067 25.1303 27.8206 24.9611 27.8948C24.7932 27.9689 24.5836 28.006 24.3328 28.006C23.9675 28.006 23.6864 27.917 23.4902 27.7391C23.2934 27.5604 23.1761 27.3036 23.1377 26.9632Z" fill="white"/>
</g>
<defs>
<clipPath id="clip0_5_303137">
<rect width="45" height="60" fill="white"/>
</clipPath>
</defs>
</svg>
